<svg xmlns="http://www.w3.org/2000/svg" enable-background="new 0 0 73 73" viewBox="0 0 73 73" width="25" height="25"><path d="M44.9894829 27.5259914c.7148819.287138 1.7570648-.4267979 2.5858955-1.0009918.6537781-1.7660999 1.4496536-3.3920898 2.1034737-5.158226-.3029442-.1619415-.5347481-.3288002-.8376961-.4907398C47.6205559 23.127903 46.2101593 25.2741184 44.9894829 27.5259914zM67.0947418 7.5061369c.4528046.5089979.9951324.7892141 1.4180679 1.1693897-.051445 3.5562973-.1072159 8.1242018-.1586609 11.6804991-.3586884.4452591-.9620285.4885502-1.426239.7469292C67.0098572 16.6436882 67.0127869 11.9654045 67.0947418 7.5061369zM54.6657448 29.8616428c.8311882.4546757 1.5744896 1.1460876 2.2978935 1.77705.2459145.214489.3887939.5118923.3887939.8263645v32.0809784c0 .619751-.5372276 1.1221542-1.1999283 1.1221542H8.0194607c-.5248313 0-.9192667-.3460617-1.1500311-.7868881-.2721915-.5199585-.5015855-.8515015-.6892719-1.3780632 8.8882055.0143967 18.0276718-.083374 26.9158783-.0689735 7.0437126.0114098 14.0874214.0228195 21.131134.0342293C54.0767746 52.3312416 54.3015327 40.9945717 54.6657448 29.8616428zM23.990303 33.4323158c-.6005116.1056328-1.2236176.0808868-1.8138618-.0720367-1.4401646-1.6185665-2.9255409-3.4782467-3.9555607-5.3842602.31534.0454521.630682.0909061.9460239.1363583C20.7643337 29.8504868 22.3019981 31.7823353 23.990303 33.4323158z" fill="#000000" class="color000 svgShape"></path><path d="M9.538929 11.0020933c-1.6446791 1.0247869-3.2434158 2.2531052-4.1719432 3.9539852-1.2985091 2.3786116-1.0515909 5.4259672.3014932 7.773963s3.6918726 4.026722 6.2408819 4.946764c2.5490093.9200401 5.3045826 1.1342468 8.0129509 1.0411453-2.2078533-1.3050938-4.9486227-1.2420177-7.3785772-2.0625038-2.1554937-.7278137-4.0737257-2.1953926-5.2415462-4.1478405s-1.5500979-4.3838825-.9274602-6.5720749 2.2724552-4.0844011 4.3958673-4.9010916c-.6325951-.0908756-1.2999258.0936165-1.7960072.4965277M45.1062088 27.6711445c-.2285156 0-.4472656-.1044922-.5908203-.2880859-.7353516-.9399414-1.3457031-1.9492188-1.9355469-2.925293-.6132813-1.0146484-1.1962891-1.9785156-1.8481445-2.7402344l-2.6831055.0161133c-.4008789-.0092773-.7084961-.2836914-.7519531-.6660156-.4868164-4.3051758-.456543-8.6074219-.362793-12.2480469.0097656-.3847656.309082-.699707.6928711-.7290039C48.6945877 7.250246 54.601326 7.2922382 65.3161697 7.3708515l1.4897461.0107422c.2041016.0014648.3989258.0859375.5395508.234375.1401367.1484375.2138672.3476563.2041016.5517578-.1347656 2.7856445-.0888672 5.6806641-.0439453 8.480957.0205078 1.2993164.0405273 2.5605469.0410156 3.7514648 0 .378418-.2817383.6977539-.6572266.7446289-5.1992188.6484375-8.0375977.5620117-11.324707.465332-1.7773438-.0532227-3.7827148-.1132813-6.4150391-.0654297-1.293457 1.5849609-2.6445313 3.859375-3.3452148 5.6499023-.0981445.2504883-.3232422.4296875-.5893555.46875C45.1784744 27.6687031 45.1423416 27.6711445 45.1062088 27.6711445zM41.0656815 20.2155781c.2080078 0 .40625.0864258.5483398.2382813.8466797.9077148 1.5283203 2.034668 2.2495117 3.2280273.3481445.5761719.7041016 1.1640625 1.0839844 1.7338867.8535156-1.7758789 2.0830078-3.7050781 3.2753906-5.1010742.1386719-.1630859.3408203-.2583008.5546875-.2631836 2.8408203-.0595703 4.9619141.003418 6.831543.059082 3.2109375.0952148 5.7739258.1733398 10.4355469-.3745117-.0058594-.984375-.0224609-2.0117188-.0390625-3.0634766-.0410156-2.5649414-.0830078-5.2094727.0126953-7.7963867l-.7128906-.0053711C54.8503494 8.7951679 48.9914627 8.7531757 38.4167557 9.5358906c-.0732422 3.2446289-.0761719 6.9643555.2988281 10.6938477l2.3432617-.0141602C41.0607986 20.2155781 41.0632401 20.2155781 41.0656815 20.2155781zM54.4123611 64.0949707H6.864996c-.4140625 0-.75-.3359337-.75-.7499962V30.3923359c0-.4140625.3359375-.75.75-.75h14.8349609c.4140625 0 .75.3359375.75.75s-.3359375.75-.75.75H7.614996v31.4526386h46.0473633V31.1423359H24.5827694c-.4140625 0-.75-.3359375-.75-.75s.3359375-.75.75-.75h29.8295918c.4140625 0 .75.3359375.75.75v32.9526367C55.1623611 63.759037 54.8264236 64.0949707 54.4123611 64.0949707z" fill="#000000" class="color000 svgShape"></path><path d="M31.0588436,51.1086464c-0.1557617,0-0.3120117-0.0483398-0.4438477-0.1455078c-3.6206055-2.6606445-7.6591797-6.0498047-11.9345703-9.6376953c-3.9619141-3.3251953-8.0581055-6.7631836-11.9399414-9.7036152c-0.3300781-0.25-0.3950195-0.7202148-0.1445313-1.0507813c0.2504883-0.3291016,0.7207031-0.3950195,1.0507813-0.1445313c3.9111328,2.9628925,8.0219727,6.4130878,11.9980469,9.7500019c4.0766602,3.4208984,7.9370117,6.6611328,11.4023438,9.2407227c4.4663105-3.4946289,9.3281269-7.746582,14.4658222-12.2402344c2.527832-2.2114258,5.0722656-4.4370117,7.581543-6.5791035c0.3154297-0.2685547,0.7890625-0.230957,1.0571289,0.0834961c0.269043,0.3149414,0.2319336,0.7880859-0.0834961,1.0571289c-2.5043945,2.1386738-5.0444336,4.3603535-7.5678711,6.5673847c-5.3266602,4.6591797-10.3583984,9.0600586-14.9819355,12.6455078C31.3835506,51.055912,31.220953,51.1086464,31.0588436,51.1086464z" fill="#000000" class="color000 svgShape"></path><path d="M7.3610897 63.9397011c-.1611328 0-.3227539-.0512695-.4599609-.1577148-.3266602-.2543945-.3857422-.7255859-.1318359-1.0527344 4.9404297-6.3544922 10.4492188-12.3994141 16.3740234-17.9667969.3027344-.2836914.7763672-.2685547 1.0600586.0327148.2836914.3017578.269043.7763672-.0327148 1.0600586C18.302496 51.3698769 12.8464413 57.3566933 7.9538631 63.6501503 7.8059139 63.8400917 7.5847225 63.9397011 7.3610897 63.9397011zM54.1408768 63.5461464c-.2114258 0-.4213867-.0888672-.5698242-.2617188-5.0854492-5.9331055-10.8168945-11.4243164-17.0351563-16.3208008-.3256836-.2563477-.3818359-.7280273-.1254883-1.0532227.2558594-.3256836.7280273-.3828125 1.0532227-.1254883 6.2949219 4.9570313 12.097168 10.5161133 17.2460938 16.5229492.2695313.3144531.2333984.7880859-.0810547 1.0576172C54.4870682 63.4865761 54.3132401 63.5461464 54.1408768 63.5461464zM44.0881424 16.0432148c-.1826172 0-.3686523-.0351563-.5483398-.105957-.4213867-.1660156-.7456055-.5107422-.8681641-.9223633-.1166992-.3930664-.0522461-.828125.1767578-1.1943359.2333984-.3725586.6044922-.6254883 1.0185547-.6938477.4946289-.0810547 1.0029297.1088867 1.2885742.4853516.1264648.1660156.2050781.3662109.2290039.5751953.0566406.1743164.0795898.362793.0654297.5551758-.034668.4711914-.2851563.8876953-.6699219 1.1142578C44.5695877 15.9802265 44.3317947 16.0432148 44.0881424 16.0432148zM51.8615799 15.722414c-.0839844 0-.1689453-.0063477-.2543945-.0195313-.4399414-.0668945-.8344727-.3046875-1.0825195-.6523438-.3344727-.4677734-.3955078-1.1000977-.1557617-1.6103516.2602539-.5561523.8520508-.9077148 1.4458008-.8735352.206543.012207.3886719.1064453.5166016.2490234.1835938.046875.3554688.1298828.5029297.2470703.3432617.2729492.5371094.6967773.53125 1.1625977-.0053711.4750977-.2236328.9213867-.5834961 1.1938477C52.5192947 15.6179218 52.1994705 15.722414 51.8615799 15.722414zM61.214119 15.3503437c-.1303711 0-.262207-.0161133-.3920898-.0493164-.7426758-.190918-1.2602539-.9233398-1.1787109-1.6669922.0439453-.4008789.2636719-.7724609.6020508-1.0200195.3271484-.2387695.7304688-.3300781 1.1083984-.2563477.0273438.0058594.0541992.0126953.0805664.0209961.2319336.0107422.4570313.0776367.6542969.1977539.6479492.3964844.8803711 1.2729492.5180664 1.9545898C62.3347244 15.0412617 61.7863846 15.3503437 61.214119 15.3503437zM24.2922421 33.5744667c-.1845703 0-.3666992-.0683594-.5078125-.1982422-.8920898-.8203125-1.7602539-1.6191425-2.6083984-2.4472675-.9819336-.9257813-1.8310547-1.7880859-2.5864258-2.6279297-.2768555-.3076172-.2519531-.7817383.0561523-1.059082.3081055-.277832.7822266-.2514648 1.059082.0561523.7275391.8085938 1.5483398 1.6425781 2.5097656 2.5483398.4941406.4829102.9916992.9521484 1.4912109 1.4160156.0400391-.3173828.0849609-.6430664.1352539-.9799805.1767578-1.2119141.4423828-2.3129883.7236328-3.4785156l.1342773-.5576172c.0957031-.402832.5-.6552734.9038086-.5551758.402832.0961914.6513672.5009766.5551758.9038086l-.1347656.5610352c-.2734375 1.1308594-.53125 2.1992188-.6982422 3.3447266-.1269531.8574219-.2202148 1.6381855-.2856445 2.3886738-.0244141.284668-.2089844.5307617-.4755859.6342773C24.4758358 33.5578651 24.3835506 33.5744667 24.2922421 33.5744667z" fill="#000000" class="color000 svgShape"></path><path d="M19.1623592,28.5495625H19.017828c-7.6801758,0-13.9287109-4.5751953-13.9287109-10.1992188s6.2485352-10.199707,13.9287109-10.199707c7.6743164,0,13.9174824,4.5756836,13.9174824,10.199707c0,3.4335938-2.751955,6.894043-7.0107441,8.8164063c-0.3779297,0.1708984-0.8217773,0.0029297-0.9921875-0.375c-0.1704102-0.3774414-0.0024414-0.8217773,0.375-0.9921875c3.7226563-1.6801758,6.1279297-4.6044922,6.1279297-7.4492188c0-4.796875-5.5703125-8.699707-12.4174805-8.699707c-6.8530273,0-12.4287109,3.902832-12.4287109,8.699707s5.5756836,8.6992188,12.4287109,8.6992188h0.1445313c0.4140625,0,0.75,0.3359375,0.75,0.75S19.5764217,28.5495625,19.1623592,28.5495625z" fill="#000000" class="color000 svgShape"></path><path d="M19.6892147 15.8469257h-7.6489258c-.4140625 0-.75-.3359375-.75-.75s.3359375-.75.75-.75h7.6489258c.4140625 0 .75.3359375.75.75S20.1032772 15.8469257 19.6892147 15.8469257zM22.9939022 20.6018085H11.4143124c-.4140625 0-.75-.3359375-.75-.75s.3359375-.75.75-.75h11.5795898c.4140625 0 .75.3359375.75.75S23.4079647 20.6018085 22.9939022 20.6018085z" fill="#000000" class="color000 svgShape"></path><path d="M11.9093685,27.6767597c2.1586914,0.7791748,4.4655151,1.0490112,6.7663574,1.0578003c0.1842041,0.3046875,0.368042,0.607666,0.5703735,0.9077759H6.864996c-0.4140625,0-0.75,0.3359375-0.75,0.75c0.0857768,34.8079529-0.1954031,33.0506287,0.2127075,33.4724731c0.1567383,0.3409386,0.3370972,0.6255455,0.541748,1.0164757c0.2307129,0.4407959,0.6251831,0.7868652,1.1500244,0.7868652h48.1330566c0.6626587,0,1.1998901-0.5023804,1.1998901-1.1221313V32.4650307c0-0.3144531-0.1428833-0.6118793-0.3887939-0.8263569c-0.5907593-0.5153198-1.1976318-1.0638428-1.8520508-1.4978638c-0.104187-0.2891235-0.3743286-0.4984741-0.6992188-0.4984741H25.48316c0.2024059-1.0823097,0.3787727-1.7914047,0.5501099-2.5282593c4.1956177-1.9320068,6.9020405-5.3600464,6.9020405-8.7637329c0-5.6240234-6.243166-10.199707-13.9174824-10.199707c-4.2330933,0-8.024231,1.3947144-10.5809937,3.5841675c-1.2312622,0.8746338-2.3516235,1.9056396-3.0698242,3.2212524C3.0523083,19.1960678,5.3292036,25.3018627,11.9093685,27.6767597z M22.1764584,33.3602943c0.5563354,0.144104,1.1409912,0.1644897,1.7093506,0.0789795c0.5119362,0.3372383,1.1078072-0.0170441,1.1535034-0.5498657c0.0484009-0.555481,0.1181641-1.1396503,0.1994019-1.7470722h27.2245502c-7.6384659,6.5468502-14.9015045,13.1775761-21.4161396,18.2749043c-6.4378719-4.792347-14.8550129-12.4022789-22.4790649-18.2749043h11.7666626C20.9321957,31.9140034,21.5556698,32.6626015,22.1764584,33.3602943z M22.9825497,44.9194984C17.4483089,50.1348915,12.2943172,55.7739906,7.614996,61.6846962V32.3013344C12.749959,36.2538338,18.0481567,40.8319893,22.9825497,44.9194984z M37.6633377,45.9461098c5.1496239-4.3476906,10.490799-9.141716,15.9990234-13.8575439v29.02771C48.8323441,55.6304359,43.4610062,50.5311317,37.6633377,45.9461098z M36.5011063,46.9226723c0.2828064,0.2574425,8.5854149,6.6239395,16.4639893,15.6723022H8.8081112c4.668457-5.8952637,9.8115845-11.5200806,15.3383789-16.7161255c2.2654419,1.8603516,4.4347534,3.5897827,6.4685059,5.0842896c0.1318359,0.097168,0.2880859,0.1455078,0.4438477,0.1455078c0.1621094,0,0.324707-0.0527344,0.4594727-0.1572266C33.1302567,49.7014198,34.7947464,48.3472939,36.5011063,46.9226723z M31.4353085,18.3503437c0,2.7868652-2.3171997,5.6425781-5.9111328,7.3376465c-0.3760376-0.0509033-0.7357788,0.1820679-0.8251953,0.5583496c-0.4845448,2.0352974-0.7275581,2.9107018-0.9931641,5.0161133c-4.3190727-4.0108681-3.9450111-4.1883507-4.5307007-4.2103271c-0.0045166-0.000061-0.0082397-0.0025635-0.0127563-0.0025635H19.017828c-6.8530273,0-12.4287109-3.9023438-12.4287109-8.6992188s5.5756836-8.699707,12.4287109-8.699707C25.864996,9.6506367,31.4353085,13.5534687,31.4353085,18.3503437z" fill="#000000" class="color000 svgShape"></path><path d="M38.0485916,21.7336445l2.6831055-0.0161133c1.1675835,1.3643684,2.3949928,3.8904648,3.7836914,5.6655273c0.1681976,0.2151127,0.4369965,0.3188038,0.699707,0.2802734c0.0702515-0.0103149,0.1259155-0.0533447,0.1888428-0.0819092c0.6690063-0.0282593,1.4908447-0.5848999,2.1714478-1.0564575c0.632019-1.7072754,1.3925171-3.2879639,2.0334473-4.9865723c2.4054565-0.0331421,4.2849731,0.0216675,5.9558716,0.0717163c3.2871094,0.0966797,6.1254883,0.1831055,11.324707-0.465332c0.1665039-0.020813,0.309082-0.1013184,0.4223022-0.2106323c0.3778076-0.1392822,0.7770386-0.2487183,1.0424194-0.578125c0.0514526-3.5563354,0.1072388-8.1242065,0.1586914-11.680481c-0.2999878-0.2696533-0.6594849-0.4918823-1.0050049-0.7782593c-0.1107178-0.335319-0.4038086-0.5135465-0.7019043-0.515686l-1.4897461-0.0107422C54.601326,7.2922382,48.6945877,7.250246,37.6267166,8.0905781c-0.3837891,0.0292969-0.6831055,0.3442383-0.6928711,0.7290039c-0.09375,3.640625-0.1240234,7.9428711,0.362793,12.2480469C37.3400955,21.4499531,37.6477127,21.7243671,38.0485916,21.7336445z M38.4167557,9.5358906c10.574707-0.7827148,16.4335938-0.7407227,26.8886719-0.6650391l0.7128906,0.0053711c-0.0957031,2.5869141-0.0537109,5.2314453-0.0126953,7.7963867c0.0166016,1.0517578,0.0332031,2.0791016,0.0390625,3.0634766c-4.6616211,0.5478516-7.2246094,0.4697266-10.4355469,0.3745117c-1.8696289-0.0556641-3.9907227-0.1186523-6.831543-0.059082c-0.2138672,0.0048828-0.4160156,0.1000977-0.5546875,0.2631836c-1.1923828,1.3959961-2.421875,3.3251953-3.2753906,5.1010742c-1.1536331-1.7304459-2.0661049-3.603157-3.3334961-4.9619141c-0.1420898-0.1518555-0.340332-0.2382813-0.5483398-0.2382813c-0.0024414,0-0.0048828,0-0.0068359,0l-2.3432617,0.0141602C38.3405838,16.500246,38.3435135,12.7805195,38.4167557,9.5358906z" fill="#000000" class="color000 svgShape"></path><path d="M44.0881424 16.0432148c.9732628 0 1.584938-.9679098 1.2963867-1.855957-.0239258-.2089844-.1025391-.4091797-.2290039-.5751953-.2856445-.3764648-.7939453-.5664063-1.2885742-.4853516-.8604507.1420555-1.4425163 1.0555639-1.1953125 1.8881836C42.8531036 15.6243687 43.4551544 16.0432148 44.0881424 16.0432148zM51.8615799 15.722414c1.7434235 0 2.061676-2.5002823.4697266-2.9067383-.1279297-.1425781-.3100586-.2368164-.5166016-.2490234-1.2501755-.0719671-2.0720482 1.3902206-1.2900391 2.4838867C50.7727127 15.3981953 51.3430672 15.722414 51.8615799 15.722414zM61.214119 15.3503437c.5722656 0 1.1206055-.309082 1.3925781-.8193359.4870911-.9164181-.1063538-2.1029701-1.1723633-2.1523438-.3322029-.1045809-.8089981-.0419703-1.1889648.2353516-.3383789.2475586-.5581055.6191406-.6020508 1.0200195C59.5491638 14.4926767 60.2552338 15.3503437 61.214119 15.3503437zM12.0402889 15.8469257h7.6489258c.4140625 0 .75-.3359375.75-.75s-.3359375-.75-.75-.75h-7.6489258c-.4140625 0-.75.3359375-.75.75S11.6262264 15.8469257 12.0402889 15.8469257zM11.4143124 20.6018085h11.5795898c.4140625 0 .75-.3359375.75-.75s-.3359375-.75-.75-.75H11.4143124c-.4140625 0-.75.3359375-.75.75S11.0002499 20.6018085 11.4143124 20.6018085z" fill="#000000" class="color000 svgShape"></path></svg>