<svg xmlns="http://www.w3.org/2000/svg" enable-background="new 0 0 64 64" viewBox="0 0 64 64" width="25" height="25"><path fill="#8a9da0" d="M43.6,7.8H13c-1.2,0-2.2,1-2.2,2.2v24h4.8h3.6v1.2h8l0,0c1.2,2.2,3.2,3.8,5.5,4.5l1.4,0.4l-1.4,0.4
			c-2.4,0.7-4.4,2.4-5.5,4.5l0,0h-8v1.2h-3.6h-4.8v5.9c0,1.2,1,2.2,2.2,2.2h36.8c1.2,0,2.2-1,2.2-2.2V16.1L43.6,7.8z" class="color8a9da0 svgShape"></path><path fill="#1c1d21" d="M43.6,7.8v7.6c0,0.4,0.4,0.8,0.8,0.8H52L43.6,7.8z" class="color1c1d21 svgShape"></path><path fill="#00ffff" d="M49.8,54.4H13c-1.2,0-2.2-1-2.2-2.2v6c0,1.2,1,2.2,2.2,2.2h36.8c1.2,0,2.2-1,2.2-2.2v-6
			C52,53.4,51,54.4,49.8,54.4z" class="color0ff svgShape"></path><rect width="3.6" height="12.3" x="15.5" y="34" fill="#fddf7f" class="colorfddf7f svgShape"></rect><rect width="15.3" height="12.3" x=".2" y="34" fill="red" class="colorred svgShape"></rect><path fill="#d7eaff" d="M19.1,45.2h8l0,0c1.2-2.2,3.2-3.8,5.5-4.5l1.4-0.4l-1.4-0.4c-2.4-0.7-4.4-2.4-5.5-4.5l0,0h-8V45.2z" class="colord7eaff svgShape"></path><circle cx="24.1" cy="40.2" r="1.6" fill="#ecf4f7" class="colorecf4f7 svgShape"></circle><path fill="#1c1d21" d="M33.3,47.5c-0.7,0.7-0.7,1.9,0,2.7c0.4,0.4,0.9,0.6,1.3,0.6s1-0.2,1.3-0.6c0.7-0.7,0.7-1.9,0-2.7
	C35.2,46.7,34,46.7,33.3,47.5z M35.1,49.3c-0.3,0.3-0.7,0.3-1,0c-0.3-0.3-0.3-0.7,0-1c0.1-0.1,0.3-0.2,0.5-0.2
	c0.2,0,0.4,0.1,0.5,0.2C35.4,48.6,35.4,49,35.1,49.3z M39,50.1c0.4,0.4,0.8,0.6,1.3,0.6c0.5,0,1-0.2,1.3-0.6c0.7-0.7,0.7-1.9,0-2.7
	c0,0,0,0,0,0c-0.4-0.4-0.8-0.6-1.3-0.6c-0.5,0-1,0.2-1.3,0.6C38.3,48.2,38.3,49.4,39,50.1z M39.9,48.3c0.1-0.1,0.3-0.2,0.5-0.2
	c0.2,0,0.4,0.1,0.5,0.2c0,0,0,0,0,0c0.3,0.3,0.3,0.7,0,1c-0.1,0.1-0.3,0.2-0.5,0.2c-0.2,0-0.4-0.1-0.5-0.2
	C39.6,49,39.6,48.6,39.9,48.3z M47.5,50.1c0.7-0.7,0.7-1.9,0-2.7c-0.7-0.7-1.9-0.7-2.7,0s-0.7,1.9,0,2.7c0.4,0.4,0.9,0.6,1.3,0.6
	C46.6,50.7,47.1,50.5,47.5,50.1z M45.6,49.3c-0.3-0.3-0.3-0.7,0-1c0.1-0.1,0.3-0.2,0.5-0.2c0.2,0,0.4,0.1,0.5,0.2
	c0.3,0.3,0.3,0.7,0,1C46.3,49.6,45.9,49.6,45.6,49.3z M24.8,3.7c0-0.3,0.3-0.6,0.6-0.6h0.5V2.6c0-0.3,0.3-0.6,0.6-0.6
	c0.3,0,0.6,0.3,0.6,0.6v0.5h0.5c0.3,0,0.6,0.3,0.6,0.6c0,0.3-0.3,0.6-0.6,0.6h-0.5v0.5c0,0.3-0.3,0.6-0.6,0.6
	c-0.3,0-0.6-0.3-0.6-0.6V4.3h-0.5C25,4.3,24.8,4,24.8,3.7z M5.1,13.9c0-0.3,0.3-0.6,0.6-0.6h0.5v-0.5c0-0.3,0.3-0.6,0.6-0.6
	s0.6,0.3,0.6,0.6v0.5h0.5c0.3,0,0.6,0.3,0.6,0.6s-0.3,0.6-0.6,0.6H7.4V15c0,0.3-0.3,0.6-0.6,0.6S6.2,15.4,6.2,15v-0.5H5.7
	C5.4,14.5,5.1,14.3,5.1,13.9z M57.6,19c0,0.3-0.3,0.6-0.6,0.6h-0.5v0.5c0,0.3-0.3,0.6-0.6,0.6c-0.3,0-0.6-0.3-0.6-0.6v-0.5h-0.5
	c-0.3,0-0.6-0.3-0.6-0.6c0-0.3,0.3-0.6,0.6-0.6h0.5v-0.5c0-0.3,0.3-0.6,0.6-0.6c0.3,0,0.6,0.3,0.6,0.6v0.5H57
	C57.4,18.4,57.6,18.7,57.6,19z M17.5,57.4c0,0.3-0.3,0.6-0.6,0.6h-0.7c-0.3,0-0.6-0.3-0.6-0.6s0.3-0.6,0.6-0.6h0.7
	C17.2,56.8,17.5,57.1,17.5,57.4z M52.6,16C52.6,16,52.6,16,52.6,16C52.6,16,52.6,16,52.6,16c0-0.1,0-0.1,0-0.1c0,0,0,0,0-0.1
	c0,0,0,0,0,0c0,0,0-0.1-0.1-0.1L44,7.3c0,0-0.1,0-0.1-0.1c0,0,0,0,0,0c0,0,0,0-0.1,0c0,0,0,0,0,0c-0.1,0-0.1,0-0.2,0c0,0,0,0,0,0H13
	c-1.5,0-2.8,1.3-2.8,2.8v21.5c0,0.3,0.3,0.6,0.6,0.6s0.6-0.3,0.6-0.6V10c0-0.9,0.7-1.6,1.6-1.6H43v7c0,0.8,0.6,1.4,1.4,1.4h7v35.5
	c0,0.9-0.7,1.6-1.6,1.6H13c-0.9,0-1.6-0.7-1.6-1.6v-3.3c0-0.3-0.3-0.6-0.6-0.6s-0.6,0.3-0.6,0.6v3.3v6c0,1.5,1.3,2.8,2.8,2.8h36.8
	c1.5,0,2.8-1.3,2.8-2.8v-6V16.1c0,0,0,0,0,0C52.6,16.1,52.6,16.1,52.6,16z M44.4,15.6c-0.1,0-0.2-0.1-0.2-0.2V9.2l3.2,3.2l3.2,3.2
	H44.4z M49.8,59.8H13c-0.9,0-1.6-0.7-1.6-1.6V58h2.8c0.3,0,0.6-0.3,0.6-0.6s-0.3-0.6-0.6-0.6h-2.8v-2.4c0,0,0,0,0,0
	c0.1,0,0.1,0.1,0.2,0.1c0,0,0,0,0,0c0.1,0,0.1,0.1,0.2,0.1c0,0,0,0,0,0c0.1,0,0.1,0.1,0.2,0.1c0,0,0,0,0,0c0.1,0,0.1,0,0.2,0.1
	c0,0,0,0,0,0c0.1,0,0.1,0,0.2,0.1c0,0,0,0,0,0c0.1,0,0.1,0,0.2,0c0,0,0,0,0,0c0.1,0,0.1,0,0.2,0c0,0,0,0,0,0c0.1,0,0.1,0,0.2,0h36.8
	c0.1,0,0.1,0,0.2,0c0,0,0,0,0,0c0.1,0,0.1,0,0.2,0c0,0,0,0,0,0c0.1,0,0.1,0,0.2,0c0,0,0,0,0,0c0.1,0,0.1,0,0.2-0.1c0,0,0,0,0,0
	c0.1,0,0.1,0,0.2-0.1c0,0,0,0,0,0c0.1,0,0.1-0.1,0.2-0.1c0,0,0,0,0,0c0.1,0,0.1-0.1,0.2-0.1c0,0,0,0,0,0c0.1,0,0.1-0.1,0.2-0.1
	c0,0,0,0,0,0v2.4H19.3c-0.3,0-0.6,0.3-0.6,0.6S19,58,19.3,58h32.1v0.2C51.4,59.1,50.7,59.8,49.8,59.8z M14.9,48.2
	c0,0.3,0.3,0.6,0.6,0.6s0.6-0.3,0.6-0.6v-1.3h3c0.3,0,0.6-0.3,0.6-0.6v-0.6h7.4c0.2,0,0.4-0.1,0.5-0.3c1.1-2.1,3-3.6,5.2-4.3
	l1.3-0.4h3.4c0.3,0,0.6-0.3,0.6-0.6c0-0.3-0.3-0.6-0.6-0.6h-3.4l-1.3-0.4c-2.2-0.7-4.1-2.2-5.2-4.3c-0.1-0.2-0.3-0.3-0.5-0.3h-7.4
	V34c0-0.3-0.3-0.6-0.6-0.6h-3v-1.3c0-0.3-0.3-0.6-0.6-0.6s-0.6,0.3-0.6,0.6v1.3H0.2c-0.3,0-0.6,0.3-0.6,0.6c0,0.3,0.3,0.6,0.6,0.6
	h14.7v11.1H0.2c-0.3,0-0.6,0.3-0.6,0.6s0.3,0.6,0.6,0.6h14.7V48.2z M26.7,35.8c1,1.6,2.3,2.9,4,3.8h-4.4C26,38.6,25.2,38,24.1,38
	c-1.2,0-2.2,1-2.2,2.2c0,1.2,1,2.2,2.2,2.2c1,0,1.9-0.7,2.1-1.6h4.4c-1.6,0.9-3,2.2-4,3.8h-7v-8.8H26.7z M25.2,40.2c0,0.6-0.5,1-1,1
	c-0.6,0-1-0.5-1-1c0-0.6,0.5-1,1-1C24.7,39.1,25.2,39.6,25.2,40.2z M16.1,34.6h2.4v0.6v10v0.6h-2.4V34.6z M21.8,20.1
	c0-0.3,0.3-0.6,0.6-0.6h18c0.3,0,0.6,0.3,0.6,0.6c0,0.3-0.3,0.6-0.6,0.6h-18C22,20.7,21.8,20.4,21.8,20.1z M21.8,15.7
	c0-0.3,0.3-0.6,0.6-0.6h4.7c0.3,0,0.6,0.3,0.6,0.6s-0.3,0.6-0.6,0.6h-4.7C22,16.3,21.8,16,21.8,15.7z M21.8,24.5
	c0-0.3,0.3-0.6,0.6-0.6h18c0.3,0,0.6,0.3,0.6,0.6s-0.3,0.6-0.6,0.6h-18C22,25.1,21.8,24.8,21.8,24.5z M21.8,28.9
	c0-0.3,0.3-0.6,0.6-0.6h18c0.3,0,0.6,0.3,0.6,0.6c0,0.3-0.3,0.6-0.6,0.6h-18C22,29.5,21.8,29.2,21.8,28.9z M39,40.2
	c0-0.3,0.3-0.6,0.6-0.6h0.8c0.3,0,0.6,0.3,0.6,0.6c0,0.3-0.3,0.6-0.6,0.6h-0.8C39.3,40.8,39,40.5,39,40.2z" class="color1c1d21 svgShape"></path></svg>