<svg xmlns="http://www.w3.org/2000/svg" fill-rule="evenodd" stroke-linejoin="round" stroke-miterlimit="2" clip-rule="evenodd" viewBox="0 0 64 64" width="25" height="25"><rect width="64" height="64" fill="none"></rect><path fill="#eaeaea" d="M29.808,36.192L32.01,35.249C32.648,34.975 33.382,35.052 33.95,35.452C36.227,37.057 39.004,38 42,38C49.727,38 56,31.727 56,24C56,22.895 56.895,22 58,22C59.105,22 60,22.895 60,24L60,56C60,57.105 59.105,58 58,58L6,58C4.895,58 4,57.105 4,56L4,20C4,18.895 4.895,18 6,18L26.505,18C27.123,18 27.707,18.286 28.086,18.775C28.465,19.264 28.596,19.9 28.442,20.499C28.153,21.618 28,22.791 28,24C28,26.996 28.943,29.773 30.548,32.05C30.948,32.618 31.025,33.352 30.751,33.99L29.808,36.192Z" class="coloreaeaea svgShape"></path><path fill="#364f6b" d="M31.421,10L10,10C6.686,10 4,12.686 4,16L4,22L28.055,22L28.442,20.499C29.151,17.748 30.677,15.324 32.745,13.5L31.421,10Z" class="color364f6b svgShape"></path><path fill="#3fc1c9" d="M26.652,33.402C24.97,30.665 24,27.445 24,24C24,14.066 32.066,6 42,6C51.934,6 60,14.066 60,24C60,33.934 51.934,42 42,42C38.555,42 35.335,41.03 32.598,39.348L26.788,41.838C26.036,42.16 25.164,41.992 24.586,41.414C24.008,40.836 23.84,39.964 24.162,39.212L26.652,33.402Z" class="color3fc1c9 svgShape"></path><path fill="#364f6b" d="M189,27C189.552,27 190,27.448 190,28L190,30C190,30.552 189.552,31 189,31L187,31C186.448,31 186,30.552 186,30L186,28C186,27.448 186.448,27 187,27L189,27Z" transform="matrix(-1 0 0 1 238 -5)" class="color364f6b svgShape"></path><path fill="#364f6b" d="M189,27C189.552,27 190,27.448 190,28L190,30C190,30.552 189.552,31 189,31L187,31C186.448,31 186,30.552 186,30L186,28C186,27.448 186.448,27 187,27L189,27Z" transform="matrix(-1 0 0 1 230 -5)" class="color364f6b svgShape"></path><path fill="#364f6b" d="M189,27C189.552,27 190,27.448 190,28L190,30C190,30.552 189.552,31 189,31L187,31C186.448,31 186,30.552 186,30L186,28C186,27.448 186.448,27 187,27L189,27Z" transform="matrix(-1 0 0 1 222 -5)" class="color364f6b svgShape"></path></svg>